<mxfile host="app.diagrams.net" modified="2023-10-15T22:48:42.771Z" agent="Mozilla/5.0 (Macintosh; Intel Mac OS X 10_15_7) AppleWebKit/537.36 (KHTML, like Gecko) Chrome/117.0.0.0 Safari/537.36" etag="JtmpXN39c7oYyUsKjxjW" version="21.6.8" type="device">
  <diagram name="Page-1" id="BvWCYaXmCPkvUsNKEZtt">
    <mxGraphModel dx="1468" dy="938" grid="1" gridSize="10" guides="1" tooltips="1" connect="1" arrows="1" fold="1" page="1" pageScale="1" pageWidth="827" pageHeight="1169" math="0" shadow="0">
      <root>
        <mxCell id="0" />
        <mxCell id="1" parent="0" />
        <mxCell id="bbNTa2BmS4UBN8GBk7j8-1" style="edgeStyle=orthogonalEdgeStyle;rounded=0;orthogonalLoop=1;jettySize=auto;html=1;exitX=0.5;exitY=1;exitDx=0;exitDy=0;entryX=0.5;entryY=0;entryDx=0;entryDy=0;" edge="1" parent="1" source="bbNTa2BmS4UBN8GBk7j8-2" target="bbNTa2BmS4UBN8GBk7j8-17">
          <mxGeometry relative="1" as="geometry" />
        </mxCell>
        <mxCell id="bbNTa2BmS4UBN8GBk7j8-2" value="User clicks on forgot password" style="rounded=0;whiteSpace=wrap;html=1;" vertex="1" parent="1">
          <mxGeometry x="360" y="40" width="106" height="40" as="geometry" />
        </mxCell>
        <mxCell id="bbNTa2BmS4UBN8GBk7j8-3" style="edgeStyle=orthogonalEdgeStyle;rounded=0;orthogonalLoop=1;jettySize=auto;html=1;exitX=0.5;exitY=1;exitDx=0;exitDy=0;" edge="1" parent="1" source="bbNTa2BmS4UBN8GBk7j8-4" target="bbNTa2BmS4UBN8GBk7j8-9">
          <mxGeometry relative="1" as="geometry" />
        </mxCell>
        <mxCell id="bbNTa2BmS4UBN8GBk7j8-4" value="Enter email address" style="shape=parallelogram;perimeter=parallelogramPerimeter;whiteSpace=wrap;html=1;fixedSize=1;" vertex="1" parent="1">
          <mxGeometry x="193" y="300" width="157" height="80" as="geometry" />
        </mxCell>
        <mxCell id="bbNTa2BmS4UBN8GBk7j8-7" style="edgeStyle=orthogonalEdgeStyle;rounded=0;orthogonalLoop=1;jettySize=auto;html=1;exitX=0;exitY=0.5;exitDx=0;exitDy=0;entryX=1;entryY=0.5;entryDx=0;entryDy=0;" edge="1" parent="1" source="bbNTa2BmS4UBN8GBk7j8-9" target="bbNTa2BmS4UBN8GBk7j8-10">
          <mxGeometry relative="1" as="geometry" />
        </mxCell>
        <mxCell id="bbNTa2BmS4UBN8GBk7j8-8" style="edgeStyle=orthogonalEdgeStyle;rounded=0;orthogonalLoop=1;jettySize=auto;html=1;exitX=0.5;exitY=1;exitDx=0;exitDy=0;entryX=0.5;entryY=0;entryDx=0;entryDy=0;" edge="1" parent="1" source="bbNTa2BmS4UBN8GBk7j8-9" target="bbNTa2BmS4UBN8GBk7j8-12">
          <mxGeometry relative="1" as="geometry" />
        </mxCell>
        <mxCell id="bbNTa2BmS4UBN8GBk7j8-9" value="Is the email valid?" style="rhombus;whiteSpace=wrap;html=1;" vertex="1" parent="1">
          <mxGeometry x="207.5" y="420" width="127" height="110" as="geometry" />
        </mxCell>
        <mxCell id="bbNTa2BmS4UBN8GBk7j8-27" style="edgeStyle=orthogonalEdgeStyle;rounded=0;orthogonalLoop=1;jettySize=auto;html=1;exitX=0.5;exitY=0;exitDx=0;exitDy=0;entryX=0;entryY=0.5;entryDx=0;entryDy=0;" edge="1" parent="1" source="bbNTa2BmS4UBN8GBk7j8-10" target="bbNTa2BmS4UBN8GBk7j8-4">
          <mxGeometry relative="1" as="geometry">
            <Array as="points">
              <mxPoint x="80" y="340" />
            </Array>
          </mxGeometry>
        </mxCell>
        <mxCell id="bbNTa2BmS4UBN8GBk7j8-10" value="Display error message. Prompt user to re-enter the credentials" style="rounded=0;whiteSpace=wrap;html=1;" vertex="1" parent="1">
          <mxGeometry x="20" y="445" width="120" height="60" as="geometry" />
        </mxCell>
        <mxCell id="bbNTa2BmS4UBN8GBk7j8-30" value="" style="edgeStyle=orthogonalEdgeStyle;rounded=0;orthogonalLoop=1;jettySize=auto;html=1;" edge="1" parent="1" source="bbNTa2BmS4UBN8GBk7j8-12" target="bbNTa2BmS4UBN8GBk7j8-29">
          <mxGeometry relative="1" as="geometry" />
        </mxCell>
        <mxCell id="bbNTa2BmS4UBN8GBk7j8-12" value="Send reset link on the email" style="rounded=0;whiteSpace=wrap;html=1;" vertex="1" parent="1">
          <mxGeometry x="211" y="570" width="120" height="60" as="geometry" />
        </mxCell>
        <mxCell id="bbNTa2BmS4UBN8GBk7j8-14" value="NO" style="text;html=1;align=center;verticalAlign=middle;resizable=0;points=[];autosize=1;strokeColor=none;fillColor=none;" vertex="1" parent="1">
          <mxGeometry x="160" y="475" width="40" height="30" as="geometry" />
        </mxCell>
        <mxCell id="bbNTa2BmS4UBN8GBk7j8-15" style="edgeStyle=orthogonalEdgeStyle;rounded=0;orthogonalLoop=1;jettySize=auto;html=1;exitX=0.5;exitY=1;exitDx=0;exitDy=0;entryX=0.5;entryY=0;entryDx=0;entryDy=0;" edge="1" parent="1" source="bbNTa2BmS4UBN8GBk7j8-17" target="bbNTa2BmS4UBN8GBk7j8-18">
          <mxGeometry relative="1" as="geometry">
            <mxPoint x="645" y="290" as="targetPoint" />
            <Array as="points">
              <mxPoint x="413" y="270" />
              <mxPoint x="750" y="270" />
            </Array>
          </mxGeometry>
        </mxCell>
        <mxCell id="bbNTa2BmS4UBN8GBk7j8-16" style="edgeStyle=orthogonalEdgeStyle;rounded=0;orthogonalLoop=1;jettySize=auto;html=1;exitX=0.5;exitY=1;exitDx=0;exitDy=0;entryX=0.5;entryY=0;entryDx=0;entryDy=0;" edge="1" parent="1" source="bbNTa2BmS4UBN8GBk7j8-17" target="bbNTa2BmS4UBN8GBk7j8-4">
          <mxGeometry relative="1" as="geometry">
            <mxPoint x="271" y="290" as="targetPoint" />
            <Array as="points">
              <mxPoint x="413" y="270" />
              <mxPoint x="271" y="270" />
            </Array>
          </mxGeometry>
        </mxCell>
        <mxCell id="bbNTa2BmS4UBN8GBk7j8-17" value="Are you sure to reset the password?" style="rhombus;whiteSpace=wrap;html=1;" vertex="1" parent="1">
          <mxGeometry x="350" y="140" width="126" height="100" as="geometry" />
        </mxCell>
        <mxCell id="bbNTa2BmS4UBN8GBk7j8-18" value="Redirect to login page." style="rounded=0;whiteSpace=wrap;html=1;" vertex="1" parent="1">
          <mxGeometry x="690" y="290" width="120" height="60" as="geometry" />
        </mxCell>
        <mxCell id="bbNTa2BmS4UBN8GBk7j8-25" value="NO" style="text;html=1;align=center;verticalAlign=middle;resizable=0;points=[];autosize=1;strokeColor=none;fillColor=none;" vertex="1" parent="1">
          <mxGeometry x="510" y="240" width="40" height="30" as="geometry" />
        </mxCell>
        <mxCell id="bbNTa2BmS4UBN8GBk7j8-26" value="YES" style="text;html=1;align=center;verticalAlign=middle;resizable=0;points=[];autosize=1;strokeColor=none;fillColor=none;" vertex="1" parent="1">
          <mxGeometry x="310" y="240" width="50" height="30" as="geometry" />
        </mxCell>
        <mxCell id="bbNTa2BmS4UBN8GBk7j8-28" value="YES" style="text;html=1;align=center;verticalAlign=middle;resizable=0;points=[];autosize=1;strokeColor=none;fillColor=none;" vertex="1" parent="1">
          <mxGeometry x="275" y="528" width="50" height="30" as="geometry" />
        </mxCell>
        <mxCell id="bbNTa2BmS4UBN8GBk7j8-31" style="edgeStyle=orthogonalEdgeStyle;rounded=0;orthogonalLoop=1;jettySize=auto;html=1;exitX=0;exitY=0.5;exitDx=0;exitDy=0;entryX=0;entryY=0.5;entryDx=0;entryDy=0;" edge="1" parent="1" source="bbNTa2BmS4UBN8GBk7j8-29" target="bbNTa2BmS4UBN8GBk7j8-12">
          <mxGeometry relative="1" as="geometry">
            <Array as="points">
              <mxPoint x="130" y="745" />
              <mxPoint x="130" y="600" />
            </Array>
          </mxGeometry>
        </mxCell>
        <mxCell id="bbNTa2BmS4UBN8GBk7j8-34" style="edgeStyle=orthogonalEdgeStyle;rounded=0;orthogonalLoop=1;jettySize=auto;html=1;exitX=0.5;exitY=1;exitDx=0;exitDy=0;entryX=0.5;entryY=0;entryDx=0;entryDy=0;" edge="1" parent="1" source="bbNTa2BmS4UBN8GBk7j8-29" target="bbNTa2BmS4UBN8GBk7j8-33">
          <mxGeometry relative="1" as="geometry" />
        </mxCell>
        <mxCell id="bbNTa2BmS4UBN8GBk7j8-29" value="Did the user receive the email ?" style="rhombus;whiteSpace=wrap;html=1;" vertex="1" parent="1">
          <mxGeometry x="206" y="690" width="130" height="110" as="geometry" />
        </mxCell>
        <mxCell id="bbNTa2BmS4UBN8GBk7j8-32" value="NO" style="text;html=1;align=center;verticalAlign=middle;resizable=0;points=[];autosize=1;strokeColor=none;fillColor=none;" vertex="1" parent="1">
          <mxGeometry x="130" y="708" width="40" height="30" as="geometry" />
        </mxCell>
        <mxCell id="bbNTa2BmS4UBN8GBk7j8-37" style="edgeStyle=orthogonalEdgeStyle;rounded=0;orthogonalLoop=1;jettySize=auto;html=1;exitX=1;exitY=0.5;exitDx=0;exitDy=0;entryX=0;entryY=0.5;entryDx=0;entryDy=0;" edge="1" parent="1" source="bbNTa2BmS4UBN8GBk7j8-33" target="bbNTa2BmS4UBN8GBk7j8-36">
          <mxGeometry relative="1" as="geometry" />
        </mxCell>
        <mxCell id="bbNTa2BmS4UBN8GBk7j8-33" value="Enter the new password" style="shape=parallelogram;perimeter=parallelogramPerimeter;whiteSpace=wrap;html=1;fixedSize=1;" vertex="1" parent="1">
          <mxGeometry x="211" y="870" width="120" height="60" as="geometry" />
        </mxCell>
        <mxCell id="bbNTa2BmS4UBN8GBk7j8-35" value="YES" style="text;html=1;align=center;verticalAlign=middle;resizable=0;points=[];autosize=1;strokeColor=none;fillColor=none;" vertex="1" parent="1">
          <mxGeometry x="265" y="818" width="50" height="30" as="geometry" />
        </mxCell>
        <mxCell id="bbNTa2BmS4UBN8GBk7j8-39" style="edgeStyle=orthogonalEdgeStyle;rounded=0;orthogonalLoop=1;jettySize=auto;html=1;exitX=1;exitY=0.5;exitDx=0;exitDy=0;entryX=0;entryY=0.5;entryDx=0;entryDy=0;" edge="1" parent="1" source="bbNTa2BmS4UBN8GBk7j8-36" target="bbNTa2BmS4UBN8GBk7j8-38">
          <mxGeometry relative="1" as="geometry" />
        </mxCell>
        <mxCell id="bbNTa2BmS4UBN8GBk7j8-42" style="edgeStyle=orthogonalEdgeStyle;rounded=0;orthogonalLoop=1;jettySize=auto;html=1;exitX=0.5;exitY=1;exitDx=0;exitDy=0;entryX=0.5;entryY=0;entryDx=0;entryDy=0;" edge="1" parent="1" source="bbNTa2BmS4UBN8GBk7j8-36" target="bbNTa2BmS4UBN8GBk7j8-41">
          <mxGeometry relative="1" as="geometry" />
        </mxCell>
        <mxCell id="bbNTa2BmS4UBN8GBk7j8-36" value="Is the password valid ?" style="rhombus;whiteSpace=wrap;html=1;" vertex="1" parent="1">
          <mxGeometry x="440" y="840" width="80" height="120" as="geometry" />
        </mxCell>
        <mxCell id="bbNTa2BmS4UBN8GBk7j8-38" value="Update password and redirect to login page" style="rounded=0;whiteSpace=wrap;html=1;" vertex="1" parent="1">
          <mxGeometry x="630" y="870" width="120" height="60" as="geometry" />
        </mxCell>
        <mxCell id="bbNTa2BmS4UBN8GBk7j8-40" value="YES" style="text;html=1;align=center;verticalAlign=middle;resizable=0;points=[];autosize=1;strokeColor=none;fillColor=none;" vertex="1" parent="1">
          <mxGeometry x="535" y="868" width="50" height="30" as="geometry" />
        </mxCell>
        <mxCell id="bbNTa2BmS4UBN8GBk7j8-44" style="edgeStyle=orthogonalEdgeStyle;rounded=0;orthogonalLoop=1;jettySize=auto;html=1;exitX=0;exitY=0.5;exitDx=0;exitDy=0;entryX=0.5;entryY=1;entryDx=0;entryDy=0;" edge="1" parent="1" source="bbNTa2BmS4UBN8GBk7j8-41" target="bbNTa2BmS4UBN8GBk7j8-33">
          <mxGeometry relative="1" as="geometry" />
        </mxCell>
        <mxCell id="bbNTa2BmS4UBN8GBk7j8-41" value="Password is not valid please enter according to the information provided." style="rounded=0;whiteSpace=wrap;html=1;" vertex="1" parent="1">
          <mxGeometry x="420" y="1020" width="120" height="60" as="geometry" />
        </mxCell>
        <mxCell id="bbNTa2BmS4UBN8GBk7j8-43" value="&amp;nbsp;NO" style="text;html=1;align=center;verticalAlign=middle;resizable=0;points=[];autosize=1;strokeColor=none;fillColor=none;" vertex="1" parent="1">
          <mxGeometry x="470" y="968" width="40" height="30" as="geometry" />
        </mxCell>
      </root>
    </mxGraphModel>
  </diagram>
</mxfile>
